<?xml version="1.0" encoding="utf-8"?>
<!-- Generator: Adobe Illustrator 19.2.1, SVG Export Plug-In . SVG Version: 6.00 Build 0)  -->
<!DOCTYPE svg PUBLIC "-//W3C//DTD SVG 1.1//EN" "http://www.w3.org/Graphics/SVG/1.1/DTD/svg11.dtd">
<svg version="1.1" id="Layer_1" xmlns="http://www.w3.org/2000/svg" xmlns:xlink="http://www.w3.org/1999/xlink" x="0px" y="0px"
	 viewBox="0 0 73 60" style="enable-background:new 0 0 73 60;" xml:space="preserve">
<style type="text/css">
	.st0{display:none;fill:#001689;}
	.st1{fill:#FFFFFF;}
</style>
<rect x="-4.2" y="-4.3" class="st0" width="81.7" height="68.4"/>
<path class="st1" d="M0.2,46.7c1.1,4.6,5.3,8.4,11.5,7.2c3.1-0.6,5.8-3.1,6.4-5.6l2.8-10.8l2.8-0.7c-0.4,1.3-0.4,3.1,0,4.6
	c1.3,5,6.5,8.2,11.5,7c3.1-0.7,5.6-2.7,6.7-5.8l-0.1-0.4c2.2,2.2,5.7,3.3,8.9,2.5c3.1-0.7,5.6-2.7,6.7-5.8l-0.1-0.4
	c2.2,2.2,5.7,3.3,8.9,2.5c3.1-0.7,5.5-2.7,6.6-6.4v-3.5l-4.4,1c-0.2,2.6-1.8,3.9-3.5,4.2c-2.4,0.4-4.9-0.9-5.5-3.3
	c-0.6-2.4,1-4.9,3-5.4l4.9-1.2l1.7-5.5l-7.2,1.7c-4.3,1-7.3,4.8-7.4,8.9c0,0.1,0,0.3,0,0.5c0.3,4.9-2.5,7.5-4.9,7.9
	c-2.4,0.4-4.9-0.9-5.5-3.3s0.9-4.9,2.9-5.4l4.9-1.2l1.7-5.5l-7.3,1.7c-4.3,1-7.3,4.8-7.4,8.9c0,0.1,0,0.3,0,0.5
	c0.3,4.9-2.5,7.5-4.9,7.9c-2.4,0.4-4.8-0.9-5.5-3.3c-0.6-2.4,0.9-4.9,2.9-5.4l4.9-1.2l1.7-5.5l-15.5,3.6l1.1-3.8l9.8-2.4
	c5-1.3,8.4-6.1,7.1-11.1s-6.6-8.2-11.5-7c-3.1,0.7-5.8,3.1-6.4,5.6l-3,10.9L6.5,27.1l-1.4,5.3l13.2-3.1l-1.2,3.8l-9.9,2.4
	c-4,1-6.3,3.6-7,6.6C0.2,42.1,0.2,45.8,0.2,46.7z M27,14.9c0.3-1.2,1.6-2.3,3.1-2.7c2.3-0.5,4.8,0.9,5.5,3.3
	c0.6,2.4-0.9,4.9-2.9,5.3l-7.6,1.8L27,14.9z M7.9,40.5l7.8-1.7l-2.2,7.7c-0.4,1.2-1.6,2.3-3.1,2.7c-2.3,0.5-4.8-0.9-5.5-3.3
	C4.3,43.5,5.9,40.9,7.9,40.5z"/>
</svg>
